<svg width="177" height="40" viewBox="0 0 177 40" fill="none" xmlns="http://www.w3.org/2000/svg">
<path fill-rule="evenodd" clip-rule="evenodd" d="M11.124 38.692C11.172 38.764 11.292 38.8 11.484 38.8H14.256C14.544 38.8 14.688 38.668 14.688 38.404V14.572C14.688 14.236 14.652 14.032 14.58 13.96C14.508 13.864 14.28 13.816 13.896 13.816H9.612C9.444 13.816 9.336 13.852 9.288 13.924C9.264 13.972 9.216 14.08 9.144 14.248L7.668 26.308L7.38 30.016L7.056 26.308L5.472 14.248C5.4 14.08 5.34 13.972 5.292 13.924C5.268 13.852 5.172 13.816 5.004 13.816H0.792C0.408 13.816 0.18 13.864 0.108 13.96C0.036 14.032 0 14.236 0 14.572V38.404C0 38.668 0.144 38.8 0.432 38.8H3.204C3.396 38.8 3.516 38.764 3.564 38.692C3.612 38.644 3.636 38.548 3.636 38.404L3.312 21.916V18.892L3.672 21.916L5.688 35.812C5.736 35.932 5.784 36.004 5.832 36.028C5.904 36.052 6.06 36.064 6.3 36.064H8.604C8.844 36.064 8.988 36.052 9.036 36.028C9.108 36.004 9.168 35.932 9.216 35.812L11.016 21.916L11.376 18.892V21.916L11.052 38.404C11.052 38.548 11.076 38.644 11.124 38.692ZM18.432 38.656C18.528 38.752 18.636 38.8 18.756 38.8H31.968C32.256 38.8 32.4 38.644 32.4 38.332V35.524C32.4 35.404 32.352 35.308 32.256 35.236C32.184 35.14 32.088 35.092 31.968 35.092H27.54V20.728C27.54 20.608 27.492 20.512 27.396 20.44C27.324 20.344 27.228 20.296 27.108 20.296H19.404C19.284 20.296 19.176 20.344 19.08 20.44C19.008 20.512 18.972 20.608 18.972 20.728V23.536C18.972 23.68 19.008 23.8 19.08 23.896C19.176 23.968 19.284 24.004 19.404 24.004H23.652V35.092H18.756C18.636 35.092 18.528 35.14 18.432 35.236C18.36 35.308 18.324 35.404 18.324 35.524V38.332C18.324 38.476 18.36 38.584 18.432 38.656ZM65.124 38.692C65.172 38.764 65.292 38.8 65.484 38.8H68.256C68.544 38.8 68.688 38.668 68.688 38.404V14.572C68.688 14.236 68.652 14.032 68.58 13.96C68.508 13.864 68.28 13.816 67.896 13.816H63.612C63.444 13.816 63.336 13.852 63.288 13.924C63.264 13.972 63.216 14.08 63.144 14.248L61.668 26.308L61.38 30.016L61.056 26.308L59.472 14.248C59.4 14.08 59.34 13.972 59.292 13.924C59.268 13.852 59.172 13.816 59.004 13.816H54.792C54.408 13.816 54.18 13.864 54.108 13.96C54.036 14.032 54 14.236 54 14.572V38.404C54 38.668 54.144 38.8 54.432 38.8H57.204C57.396 38.8 57.516 38.764 57.564 38.692C57.612 38.644 57.636 38.548 57.636 38.404L57.312 21.916V18.892L57.672 21.916L59.688 35.812C59.736 35.932 59.784 36.004 59.832 36.028C59.904 36.052 60.06 36.064 60.3 36.064H62.604C62.844 36.064 62.988 36.052 63.036 36.028C63.108 36.004 63.168 35.932 63.216 35.812L65.016 21.916L65.376 18.892V21.916L65.052 38.404C65.052 38.548 65.076 38.644 65.124 38.692ZM86.364 31.06C86.46 30.964 86.508 30.82 86.508 30.628V30.232C86.532 30.016 86.544 29.824 86.544 29.656C86.544 28.312 86.412 27.064 86.148 25.912C85.908 24.76 85.5 23.74 84.924 22.852C84.372 21.94 83.64 21.208 82.728 20.656C81.84 20.104 80.748 19.828 79.452 19.828C78.228 19.828 77.148 20.128 76.212 20.728C75.276 21.328 74.496 22.096 73.872 23.032C73.272 23.968 72.828 25.024 72.54 26.2C72.252 27.352 72.108 28.54 72.108 29.764C72.108 32.644 72.78 34.96 74.124 36.712C75.468 38.464 77.508 39.34 80.244 39.34C81.18 39.34 81.96 39.244 82.584 39.052C83.232 38.86 83.868 38.596 84.492 38.26C84.66 38.14 84.78 38.02 84.852 37.9C84.924 37.804 84.96 37.648 84.96 37.432V34.876C84.96 34.708 84.936 34.564 84.888 34.444C84.864 34.324 84.756 34.312 84.564 34.408C83.868 34.912 83.184 35.272 82.512 35.488C81.864 35.68 81.108 35.776 80.244 35.776C78.828 35.776 77.796 35.332 77.148 34.444C76.524 33.532 76.2 32.44 76.176 31.168H86.04C86.184 31.168 86.292 31.132 86.364 31.06ZM77.832 23.788C78.288 23.452 78.804 23.284 79.38 23.284C79.956 23.284 80.472 23.452 80.928 23.788C81.384 24.1 81.732 24.532 81.972 25.084C82.236 25.612 82.404 26.104 82.476 26.56C82.572 26.992 82.62 27.34 82.62 27.604H76.176C76.176 27.34 76.212 26.992 76.284 26.56C76.38 26.104 76.548 25.612 76.788 25.084C77.052 24.532 77.4 24.1 77.832 23.788ZM90.072 38.656C90.168 38.752 90.276 38.8 90.396 38.8H100.116C100.404 38.8 100.548 38.644 100.548 38.332V35.524C100.548 35.404 100.5 35.308 100.404 35.236C100.332 35.14 100.236 35.092 100.116 35.092H96.372V31.06C96.372 29.86 96.444 28.816 96.588 27.928C96.732 27.04 97.128 26.164 97.776 25.3C98.424 24.436 99.312 23.896 100.44 23.68C101.088 23.56 101.748 23.56 102.42 23.68C103.092 23.8 103.704 24.016 104.256 24.328C104.424 24.424 104.556 24.448 104.652 24.4C104.772 24.352 104.856 24.256 104.904 24.112L106.092 21.664L106.164 21.376C106.188 21.28 106.14 21.172 106.02 21.052C105.372 20.524 104.556 20.152 103.572 19.936C102.612 19.72 101.616 19.696 100.584 19.864C99.768 20.056 99.144 20.284 98.712 20.548C98.304 20.788 97.932 21.064 97.596 21.376C97.284 21.664 96.984 22 96.696 22.384C96.432 22.744 96.18 23.176 95.94 23.68V20.62C95.94 20.524 95.904 20.452 95.832 20.404C95.784 20.332 95.712 20.296 95.616 20.296H89.712C89.592 20.296 89.484 20.344 89.388 20.44C89.316 20.512 89.28 20.608 89.28 20.728V23.428C89.28 23.572 89.316 23.692 89.388 23.788C89.484 23.86 89.592 23.896 89.712 23.896H92.664V25.156V35.092H90.396C90.276 35.092 90.168 35.14 90.072 35.236C90 35.308 89.964 35.404 89.964 35.524V38.332C89.964 38.476 90 38.584 90.072 38.656ZM120.6 38.98C120.96 38.908 121.26 38.824 121.5 38.728C121.692 38.68 121.8 38.608 121.824 38.512C121.872 38.44 121.884 38.32 121.86 38.152L121.68 35.632C121.656 35.488 121.608 35.38 121.536 35.308C121.488 35.236 121.356 35.248 121.14 35.344C119.868 35.728 118.548 35.836 117.18 35.668C115.668 35.452 114.516 34.792 113.724 33.688C112.956 32.584 112.572 31.192 112.572 29.512C112.572 27.76 112.956 26.308 113.724 25.156C114.516 24.004 115.788 23.428 117.54 23.428C118.14 23.428 118.74 23.476 119.34 23.572C119.94 23.668 120.492 23.812 120.996 24.004C121.188 24.052 121.32 24.04 121.392 23.968C121.464 23.896 121.512 23.776 121.536 23.608L121.86 21.088C121.884 20.872 121.872 20.74 121.824 20.692C121.776 20.62 121.704 20.572 121.608 20.548C120.936 20.308 120.24 20.14 119.52 20.044C118.824 19.924 118.188 19.864 117.612 19.864C116.196 19.864 114.972 20.104 113.94 20.584C112.932 21.04 112.02 21.7 111.204 22.564C110.412 23.428 109.788 24.46 109.332 25.66C108.876 26.836 108.648 28.12 108.648 29.512C108.648 30.856 108.828 32.104 109.188 33.256C109.572 34.408 110.124 35.404 110.844 36.244C111.588 37.084 112.44 37.768 113.4 38.296C114.384 38.824 115.572 39.136 116.964 39.232C117.396 39.256 117.792 39.256 118.152 39.232C118.512 39.232 118.92 39.208 119.376 39.16C119.832 39.112 120.24 39.052 120.6 38.98ZM136.872 38.764C136.92 38.788 137.028 38.8 137.196 38.8H140.076C140.364 38.8 140.496 38.632 140.472 38.296C140.4 37.768 140.352 37.168 140.328 36.496V34.516V26.596C140.328 24.412 139.752 22.744 138.6 21.592C137.472 20.416 135.756 19.828 133.452 19.828C132.564 19.828 131.688 19.96 130.824 20.224C129.96 20.488 129.168 20.824 128.448 21.232C128.256 21.328 128.1 21.436 127.98 21.556C127.884 21.628 127.836 21.736 127.836 21.88C127.86 22 127.872 22.084 127.872 22.132V24.94C127.872 25.18 127.932 25.312 128.052 25.336C128.196 25.36 128.448 25.252 128.808 25.012C129.528 24.532 130.296 24.148 131.112 23.86C131.952 23.572 132.756 23.428 133.524 23.428C134.1 23.428 134.58 23.548 134.964 23.788C135.372 24.004 135.684 24.28 135.9 24.616C136.116 24.952 136.26 25.312 136.332 25.696C136.428 26.056 136.476 26.452 136.476 26.884C134.556 26.884 132.972 27.028 131.724 27.316C130.5 27.58 129.456 28 128.592 28.576C127.728 29.152 127.08 29.872 126.648 30.736C126.24 31.576 126.036 32.512 126.036 33.544C126.036 34.504 126.192 35.344 126.504 36.064C126.84 36.784 127.284 37.384 127.836 37.864C128.388 38.368 129.048 38.74 129.816 38.98C130.608 39.244 131.352 39.376 132.048 39.376C132.936 39.376 133.812 39.16 134.676 38.728C135.54 38.32 136.26 37.696 136.836 36.856V38.512C136.836 38.656 136.848 38.74 136.872 38.764ZM130.644 35.2C130.14 34.768 129.888 34.132 129.888 33.292C129.888 32.332 130.368 31.6 131.328 31.096C132.288 30.568 134.052 30.304 136.62 30.304V30.7C136.62 32.116 136.212 33.328 135.396 34.336C134.58 35.32 133.536 35.812 132.264 35.812C131.688 35.812 131.148 35.608 130.644 35.2ZM147.276 38.512C148.116 38.992 149.088 39.232 150.192 39.232C150.984 39.232 151.764 39.016 152.532 38.584C153.3 38.152 153.888 37.576 154.296 36.856V38.26C154.296 38.62 154.452 38.8 154.764 38.8H157.644C157.98 38.8 158.148 38.62 158.148 38.26V12.016C158.148 11.728 158.016 11.584 157.752 11.584H154.656C154.512 11.584 154.416 11.608 154.368 11.656C154.32 11.704 154.296 11.824 154.296 12.016V22.06C153.768 21.316 153.144 20.764 152.424 20.404C151.728 20.02 150.984 19.828 150.192 19.828C149.112 19.828 148.152 20.08 147.312 20.584C146.496 21.064 145.788 21.76 145.188 22.672C144.612 23.584 144.156 24.688 143.82 25.984C143.508 27.256 143.352 28.42 143.352 29.476C143.352 30.868 143.508 32.188 143.82 33.436C144.132 34.66 144.576 35.704 145.152 36.568C145.752 37.408 146.46 38.056 147.276 38.512ZM148.356 25.3C148.98 24.1 149.868 23.5 151.02 23.5C152.1 23.5 152.94 24.076 153.54 25.228C154.164 26.356 154.476 27.772 154.476 29.476C154.476 30.172 154.392 30.928 154.224 31.744C154.056 32.536 153.804 33.22 153.468 33.796C153.156 34.372 152.784 34.816 152.352 35.128C151.92 35.44 151.476 35.596 151.02 35.596C149.916 35.596 149.04 35.008 148.392 33.832C147.744 32.632 147.42 31.18 147.42 29.476C147.42 27.892 147.732 26.5 148.356 25.3ZM172.512 38.548C173.472 38.044 174.3 37.288 174.996 36.28C175.548 35.44 175.98 34.444 176.292 33.292C176.604 32.14 176.76 30.904 176.76 29.584C176.76 28.24 176.604 26.98 176.292 25.804C175.98 24.628 175.5 23.596 174.852 22.708C174.228 21.82 173.448 21.124 172.512 20.62C171.6 20.116 170.544 19.864 169.344 19.864C168.12 19.864 167.052 20.116 166.14 20.62C165.228 21.124 164.448 21.82 163.8 22.708C163.176 23.596 162.708 24.628 162.396 25.804C162.084 26.98 161.928 28.24 161.928 29.584C161.928 30.928 162.084 32.188 162.396 33.364C162.708 34.54 163.176 35.584 163.8 36.496C164.448 37.384 165.228 38.08 166.14 38.584C167.076 39.088 168.144 39.34 169.344 39.34C170.52 39.34 171.576 39.076 172.512 38.548ZM167.76 23.932C168.192 23.572 168.72 23.392 169.344 23.392C169.944 23.392 170.46 23.584 170.892 23.968C171.348 24.328 171.708 24.808 171.972 25.408C172.26 25.984 172.476 26.644 172.62 27.388C172.788 28.108 172.872 28.84 172.872 29.584C172.872 30.352 172.788 31.108 172.62 31.852C172.476 32.572 172.26 33.232 171.972 33.832C171.708 34.432 171.348 34.912 170.892 35.272C170.46 35.632 169.944 35.812 169.344 35.812C168.72 35.812 168.192 35.632 167.76 35.272C167.328 34.912 166.968 34.432 166.68 33.832C166.416 33.232 166.2 32.572 166.032 31.852C165.888 31.108 165.816 30.352 165.816 29.584C165.816 28.84 165.888 28.096 166.032 27.352C166.2 26.608 166.416 25.948 166.68 25.372C166.968 24.772 167.328 24.292 167.76 23.932Z" fill="#FF8C32"/>
<path d="M25.2764 1.64572L29.0423 4.98232L31.5859 4.13316L32.0821 5.61937L31.2149 5.90887L32.9056 12.8463C32.9521 13.0372 32.9252 13.2385 32.8303 13.4105C32.7353 13.5825 32.5792 13.7125 32.3929 13.7748L21.8705 17.2875C21.6842 17.3496 21.4813 17.3395 21.3021 17.259C21.1228 17.1786 20.9804 17.0337 20.9029 16.8532L18.0864 10.2916L17.2199 10.5809L16.7238 9.09465L19.2667 8.24573L20.2738 3.31576L21.8089 3.6292L20.9833 7.67268L27.3257 5.55537L24.2374 2.8185L25.2764 1.64572ZM25.8903 9.33825L24.404 9.8344L25.3963 12.8068L26.8826 12.3107L25.8903 9.33825ZM22.9178 10.3306L21.4316 10.8267L22.4239 13.7991L23.9101 13.303L22.9178 10.3306ZM28.8627 8.34596L27.3765 8.8421L28.3688 11.8145L29.855 11.3184L28.8627 8.34596Z" fill="#EEEEEE"/>
</svg>
